# xmcd
#
# Track frame offsets:
#	183
#	17085
#	36620
#	72708
#	87490
#	101460
#	119043
#	142245
#	154210
#	186073
#	205158
#	225578
#	248263
#
# Disc length: 3663 seconds
#
# Revision: 1
# Processed by: cddbd v1.5.2PL0 Copyright (c) Steve Scherf et al.
# Submitted via: EZCDAudioConverter 3.1.0.1
#
DISCID=bc0e4d0d
DTITLE=Rufus Thomas - Blues Thang!
DYEAR=1996
DGENRE=Rhythm and Blues
TTITLE0=Think Twice Before You Speak
TTITLE1=What Do You Want Me to Do
TTITLE2=I Came Home This Morning
TTITLE3=Mom's Apple Pie
TTITLE4=Oh Baby, You Don't Have to Go
TTITLE5=Don't Put No Headstone on My Grave
TTITLE6=Last Clean Shirt
TTITLE7=You're a Fool
TTITLE8=The World Is Round
TTITLE9=Miss Bunny
TTITLE10=I Can Do Bad by Myself
TTITLE11=Strolling Beale No. 2
TTITLE12=Walking in the Rain
EXTD=
EXTT0=
EXTT1=
EXTT2=
EXTT3=
EXTT4=
EXTT5=
EXTT6=
EXTT7=
EXTT8=
EXTT9=
EXTT10=
EXTT11=
EXTT12=
PLAYORDER=
